<svg xmlns="http://www.w3.org/2000/svg" version="1.0" viewBox="0 0 262 262"><path d="M94.3 11.1c-3.7 1.4-4.3 4.1-4.4 20.6 0 15.5-.1 15.9-3.3 23.3l-3.2 7.5H78c-4.2 0-5.5.4-5.5 1.5 0 .9 1.6 1.7 4.5 2.3 7.9 1.5 7.9 4.1 0 5.5-6.9 1.2-6.3 3.2.9 3.2 3.4 0 6.1.4 6.1 1s-2.1 2-4.7 3.3c-7.9 3.7-6.1 6.6 2 3.2 2.2-.9 3.8-1.1 4.2-.5.5.8-2.5 2.7-10 6.5-1.1.5-9.6 1.2-19 1.5-16.2.5-17 .6-17 2.5s.8 2 15.9 2.5l15.9.5 1.2 3.4c.8 2.4 2.1 3.8 4.1 4.5 1.6.6 4.2 2 5.8 3 2.5 1.7 3.2 1.8 6 .6 1.7-.7 4.3-1.4 5.9-1.5 1.5-.1 3.1-.3 3.6-.4.6 0 1.6-2.2 2.3-4.9l1.4-4.7h71.8l.9 4.2c.8 4.3 3.7 7.1 5.8 5.7.6-.3 2.6.2 4.5 1.2 3.4 1.9 3.5 1.8 7.7-.4 2.3-1.2 4.9-2.2 5.8-2.2 2.2 0 3.5-1.8 4.4-5.7l.6-3.3 16.2-.2c15.4-.3 16.2-.4 16.2-2.3s-.8-2-17.4-2.3c-16.7-.2-17.5-.3-20.2-2.6-1.6-1.4-4.2-2.7-5.9-3.1-1.6-.4-3-1-3-1.4 0-1.8 1.5-1.9 4.7-.6 2 .8 4.4 1.5 5.4 1.5 3.3 0 2.1-2.5-1.8-3.9-8.3-2.9-8.3-5.1-.2-5.1 7.2 0 7.8-2 .8-3.2-2.4-.4-5-1-5.8-1.3-2.4-.9.8-3.2 5.9-4.2 2.9-.6 4.5-1.4 4.5-2.3 0-1.5-1-1.6-7.5-.9l-3.5.4-3.4-9c-3.3-8.7-3.4-9.6-3.6-24-.1-8.3-.5-15.8-1-16.8-2.5-5.7-8.6-3.6-20.9 7.3-9 8-10.8 8.4-18.7 4.5-2.8-1.5-6.2-3-7.6-3.6-2.4-.9-2.5-.8-1.9 1.6.6 2.5.5 2.6-2.7 2-2.4-.5-3.7-.2-4.6.9-2.6 3.1-6.8 1.9-12.9-3.7-11.2-10.3-16-13.1-19.9-11.6M101 24c1.8 1.6 4 3 4.9 3 1.7 0 4.1 1.8 4.1 3.1 0 .9-10.3 6.9-11.8 6.9S95 30.6 95 25.2c0-5.1 1.5-5.4 6-1.2m77.8 4.4c-.2 4.1-.7 7.8-1.1 8.2-.8.8-7.1-1.8-10.7-4.6-2-1.5-2.2-2-1.1-3.4.7-.9 2.2-1.6 3.1-1.6 1 0 3.2-1.4 4.8-3 4.7-4.7 5.5-4 5 4.4M120.7 48c9 5.5 10.5 18.5 3 26.6-5.9 6.5-14.7 5.2-19.8-2.8-1.6-2.6-1.9-4.6-1.7-9.8.4-7.5 3.1-12.3 8.2-14.6 4.3-1.8 6.6-1.7 10.3.6m44.2 0c7.3 3.7 10.1 14.1 6.1 22.7-5 11.1-18.2 10.8-23.2-.4-3.7-8.4-.6-19.2 6.5-22.7 4.2-2.1 6-2 10.6.4m-23.6 21.6c1.2 1.3-1.4 4.4-3.7 4.4-2.6 0-5.1-2.4-4.1-4 .7-1.1 6.8-1.4 7.8-.4"/><path d="M116.6 59.2c-.9 1.2-1.6 3.4-1.6 4.8 0 3 2.5 7 4.5 7 2.4 0 4.5-3 4.5-6.3 0-3.6-2.4-7.7-4.5-7.7-.8 0-2.1 1-2.9 2.2m36-.6c-3.1 3.1-1.4 12.4 2.2 12.4 2.9 0 4.2-2.1 4.2-6.6 0-4-1.9-7.4-4-7.4-.5 0-1.6.7-2.4 1.6M82 169.8c-1.5 1.6-3.4 4.7-4.1 7l-1.2 4.2H59.1c-9.7 0-18.2.4-19 .9s-1.1 1.6-.8 2.5c.6 1.4 3.2 1.6 20.9 1.6 18 0 20.6.2 23.3 1.9 4.7 2.9 8.2 6.5 10.5 11 2.7 5.4 9.2 11.8 13.8 13.9 4.2 1.8 15.3 2 19.4.3 1.7-.6 2.9-.7 3.3-.1 1.4 2.2-1 5.3-7.9 10.4-15.2 11.3-20.6 28.4-11.4 36.1 2.8 2.3 3.9 2.7 8 2.3 8.9-.9 12.7-7.7 9.5-16.9-1-2.6-1.7-5.6-1.7-6.8 0-1.1 2.7-5 5.9-8.6 5.1-5.6 7.7-10.3 9.6-17.2.3-.8 1.6-.7 4.7.4 5.9 2.2 15.4 2.1 20-.1s9.4-7.2 15-15.6c6.8-10.1 7.5-10.4 32.3-11 20.2-.5 21-.6 21-2.5s-.8-2-19-2.5l-18.9-.5-.6-3c-1-4.7-2.8-7.3-6.2-9.1-5.3-2.7-9.2-1.3-16.8 6.1l-6.8 6.5h-59.8l-3.9-4.1c-9.9-10.3-16.2-12.4-21.5-7.1m6 5.2c1.2.7 1.2 1.2.3 2.1s-1.6.9-2.8-.1c-2.9-2.4-.9-4.2 2.5-2m103 .3c0 1.4-2 3.7-3.2 3.7-1 0-1.1-3.4-.1-4.3 1.1-1.2 3.3-.8 3.3.6m-107 4.8c0 .5-.7.9-1.5.9-1.5 0-2-1.2-.9-2.3.8-.8 2.4.1 2.4 1.4m13.2-.4c1.1 1.3 1.3 2.5.7 4.1-1.3 3.4-3.9 3.9-6.1 1.3-2.2-2.8-2.2-3.5-.2-5.5 2-2.1 3.7-2 5.6.1m87.8 2.8c0 1.3-3.6 4.5-5.2 4.5-1.2 0-3.8-3.1-3.8-4.5 0-.7.7-2.1 1.6-2.9 1.4-1.4 1.8-1.4 4.5-.1 1.6.9 2.9 2.2 2.9 3"/></svg>