<svg xmlns="http://www.w3.org/2000/svg" version="1.0" viewBox="0 0 919 919"><path d="M91.1 102.3c-5.6 1.3-11.5 6.9-13 12.2-.6 2.2-1.1 6.3-1.1 9.1 0 7.8 5 33.8 8.4 43.7.9 2.6 1.6 5.7 1.6 6.8s.6 3 1.4 4.2c1.9 2.9 2.9 21.3 1.7 30.2-.5 3.8-1.7 9.2-2.6 12-1.3 3.8-19 45.6-24.5 58-3.1 6.8-7.3 21.4-9.5 32.5-.8 4.1-1.8 8.8-2.4 10.5-.5 1.6-1.2 6.6-1.5 11s-1.3 10.2-2.1 12.9-1.5 7.5-1.5 10.7-.6 9.1-1.4 13.1c-3.3 16.7-5.9 55.6-5.2 76.2.6 15.6 2.6 35.1 4.7 47.1.6 3.3 1.5 11.4 1.9 18s1.3 13.2 1.9 14.8c.6 1.5 1.5 7.8 2 14 .5 6.1 1.4 12.5 2 14 .6 1.6 1.1 4.1 1.1 5.7 0 4.3 5.5 24.9 9.5 35.7 3.3 9 13.7 29.8 19.8 39.8.7 1.1 2.3 3.8 3.6 6 2.4 4.2 4.7 8.2 9.5 16.2 4.9 8.1 16.8 22.4 28.2 34 18.3 18.5 36.9 30.8 57.4 38.1 11.2 3.9 19.2 6.2 21.9 6.2 1.2 0 3.1.4 4.1 1 2.2 1.2 18.1 3.8 30.5 5 5 .5 29.7 1.4 55 1.9 25.3.6 65.1 1.6 88.5 2.2s59.6.9 80.5.6c33.6-.4 39-.6 47-2.4 11.6-2.7 20.2-5.1 24.2-6.9 1.7-.8 3.5-1.4 4-1.4s3.7-2 7.1-4.5c6.9-5 10.4-9.9 14-19.5 2.4-6.4 2.4-6.9 2.7-44.5.2-36.9.2-38.1 2.3-42 1.2-2.2 2.2-4.4 2.2-4.9 0-3.5 16.9-16.6 21.4-16.6 1 0 5.8-.9 10.5-1.9 9.2-2.1 16.9-3.5 29.6-5.2 4.4-.6 10.5-1.6 13.5-2.4 3-.7 9.6-1.8 14.5-2.4 5-.6 14.2-1.8 20.5-2.6 13.6-1.8 37.9-4.3 54-5.5 6.3-.5 15.8-1.4 21-2 5.2-.5 16.5-1.7 25-2.5 8.5-.9 17.5-2.1 20-2.6 2.5-.6 8.6-1.5 13.5-1.9 5-.5 11-1.6 13.4-2.5 2.4-.8 6.8-1.5 9.8-1.5 5.3 0 17.8-3.3 18.8-5.1.9-1.4-1.3-4.7-3.7-5.4-2.2-.6-15-5.5-24.8-9.5-5-2-16.1-6.3-23-9-4.7-1.9-9.6-4.1-14.4-6.7-6-3.2-16.2-14.6-19.3-21.3-4.9-10.8-9.3-29.9-9.3-40.1 0-2.4-.7-9.8-1.5-16.4-1.9-15-1.9-36.1 0-53.5.8-7.4 1.5-16.7 1.5-20.5 0-3.9.5-8.6 1-10.5.6-1.9 1.5-7.7 2-12.8 1.9-20.4 6-25.6 29.2-37.6 12.6-6.5 18.6-9.7 31.8-17.1 4.1-2.3 10.7-5.9 14.5-7.9 13.3-7 18.9-10.3 19.3-11.4.8-2.6-3.9-3.2-45.8-5.7-4.7-.3-10.3-1.2-12.5-2s-6.7-1.4-10-1.5c-3.3 0-7.6-.5-9.5-1.1-1.9-.5-7.1-1.6-11.5-2.3-8.3-1.4-25.6-5.1-41-8.7-4.9-1.1-10.8-2.5-13.1-2.9-2.2-.5-5.1-1.3-6.5-1.9-1.3-.5-4.6-1.5-7.4-2-2.7-.6-8.1-2-12-3.2-3.8-1.1-8.6-2.4-10.5-2.9-1.9-.4-8.9-2.2-15.5-4s-13.9-3.6-16.3-4.1-4.8-1.2-5.4-1.5c-.6-.4-3.6-1.3-6.7-2-3.1-.6-6.9-1.7-8.6-2.2-9.7-3.3-40.5-9.6-59-12.1-29-3.9-36-4.4-63.5-4.5-17.2 0-33.1.5-40 1.2-15.7 1.8-42.9 6.7-54.2 9.8-5.1 1.4-11.3 3.1-13.8 3.7-2.5.7-5.2 1.6-6 2.2-.8.5-4.9 2.1-9 3.6-43.2 15.4-85.7 46.7-117.3 86.4-6.7 8.5-13.7 18.1-13.7 19 0 .3-1.5 2.7-3.3 5.3-5 7.2-15.7 26-15.7 27.6 0 .7-.7 1.9-1.5 2.6s-1.5 1.7-1.5 2.2c0 .8-3.5 8.7-8.2 18.3-1 2.2-3.2 7.8-4.9 12.4-1.6 4.6-3.3 8.9-3.8 9.5s-1.2 2.7-1.5 4.6c-.4 1.9-1.3 4.8-2.1 6.5-.8 1.6-2.3 6.1-3.4 10-1.1 3.8-2.9 10.1-4.1 13.9-1.1 3.8-2 7.8-2 8.8s-.9 4.4-2 7.5c-1.1 3.2-2 7.2-2 9.1 0 1.8-.5 4.2-1.1 5.3-.9 1.8-2.1 7.6-5.5 27.4-.7 4.4-2 14.2-2.9 21.8-.8 7.7-1.7 14.3-2 14.8-1.2 1.9-2.9 44.2-3 77.1-.1 19.1-.4 35.1-.8 35.4-3.2 3.2-25.9-15.3-38.3-31.1-5.4-7-12.6-20.3-17.2-32-1.1-2.8-3.9-10-6.2-16-2.3-6.1-4.6-11.9-5.1-13-6.4-15.4-12.2-33.8-13.9-44-.6-3.9-1.6-9-2-11.5-.5-2.5-.9-9.9-1-16.5 0-6.6-.7-16.3-1.5-21.5-1.8-12-2.1-75.2-.4-79.7.6-1.5 1.5-6.9 1.9-11.8 2-24.8 15-59.5 33-88 5.5-8.7 18.6-32.3 21.7-39 .8-1.7 1.9-3.9 2.5-4.9.6-1.1 1.4-3.1 1.9-4.5.4-1.4 2-5.8 3.4-9.6 4.1-11.1 7.2-25 8.6-38.5 1.6-15.7 1.6-14.8-.4-31.5-2.3-19.6-6.6-31.9-16.8-48-6.8-10.8-21-19.9-35.9-22.9-8.4-1.8-10.6-1.8-16.9-.3m570.5 171.8c2.2 1 4.6 1.9 5.3 1.9 1.6 0 9.3 4.5 15.6 9.1 13.3 9.7 23.3 25.2 26.6 41.1 2.5 12.4 2.4 20.5-.5 31.5-7.2 27.6-29.2 47.4-57.4 51.5-11.6 1.7-27.2-.1-35.8-4.1-14.8-6.9-23.2-13.9-30.7-25.5-5.8-8.9-6.9-11.1-10-20.1-2.9-8.3-3-29.3-.3-37.5 6.7-20 19.7-35.6 36.2-43.4 3.2-1.5 7.3-3.4 8.9-4.2 7.7-3.6 34.6-3.8 42.1-.3m-67.8 131.1c.8.8 1.2 5.5 1.2 14.4 0 10.9-.3 13.3-1.5 13.8-1 .3-4.4-1.5-8.6-4.6-3.9-2.8-9-6.1-11.3-7.2-4.9-2.5-5.3-4.7-.9-5.8 3.3-.8 5.6-2.3 14.2-8.6 4.9-3.6 5.2-3.7 6.9-2m61.7 21.2c9.9 2 18.1 5.4 25.5 10.5 4.3 2.9 19 17.2 19 18.4 0 .5 1.6 3.5 3.4 6.7 6.1 10.4 8.1 18.7 8 33-.1 10.1-.5 13.8-2.4 19.5-9 27.7-30.1 45.3-57.9 48.5-35.8 4.1-66.9-17.8-76-53.7-3.2-12.6-2.4-25.5 2.5-38.8 2.8-7.7 11.3-20.2 18.1-26.5 16.6-15.5 38.4-21.9 59.8-17.6"/><path d="M640.2 332.2c-1.2.6-3.2 2.6-4.3 4.5-4.1 6.6.4 13.3 9 13.3 5.2 0 6.3-.6 8-3.7 1.8-3.6 1.3-8.9-1.1-11.8-2.6-2.9-8.1-4.1-11.6-2.3m2.2 153.2c-3.8 1.7-7.4 6.1-7.4 9.2 0 1.3 1.4 3.9 3.1 5.9 2.7 3.1 3.7 3.5 7.8 3.5 6.1 0 9.1-2.8 9.1-8.6 0-4.6-1.9-7.8-6-9.9-3.4-1.8-2.7-1.8-6.6-.1"/></svg>